
<svg width="800" height="600" viewBox="0 0 800 600" fill="none" xmlns="http://www.w3.org/2000/svg">
  <!-- Background -->
  <rect width="800" height="600" rx="12" fill="#F8FAFC" />
  
  <!-- Header -->
  <rect x="20" y="20" width="760" height="60" rx="8" fill="#FFFFFF" stroke="#E2E8F0" stroke-width="1" />
  <rect x="40" y="40" width="120" height="20" rx="4" fill="#3B82F6" opacity="0.8" />
  <rect x="600" y="40" width="80" height="20" rx="4" fill="#E2E8F0" />
  <rect x="700" y="40" width="60" height="20" rx="4" fill="#E2E8F0" />
  
  <!-- Sidebar -->
  <rect x="20" y="100" width="200" height="480" rx="8" fill="#FFFFFF" stroke="#E2E8F0" stroke-width="1" />
  <rect x="40" y="130" width="160" height="16" rx="4" fill="#E2E8F0" />
  <rect x="40" y="170" width="160" height="16" rx="4" fill="#E2E8F0" />
  <rect x="40" y="210" width="160" height="16" rx="4" fill="#E2E8F0" />
  <rect x="40" y="250" width="160" height="16" rx="4" fill="#E2E8F0" />
  <rect x="40" y="290" width="160" height="16" rx="4" fill="#3B82F6" opacity="0.2" />
  <rect x="40" y="330" width="160" height="16" rx="4" fill="#E2E8F0" />
  
  <!-- Main Content Area -->
  <rect x="240" y="100" width="540" height="200" rx="8" fill="#FFFFFF" stroke="#E2E8F0" stroke-width="1" />
  <rect x="260" y="120" width="200" height="24" rx="4" fill="#1E293B" opacity="0.8" />
  <rect x="260" y="160" width="500" height="120" rx="4" fill="#EFF6FF" />
  <path d="M280 240 L340 200 L400 220 L460 180 L520 210 L580 170 L640 190 L700 160" stroke="#3B82F6" stroke-width="3" stroke-linecap="round" />
  <circle cx="340" cy="200" r="4" fill="#3B82F6" />
  <circle cx="400" cy="220" r="4" fill="#3B82F6" />
  <circle cx="460" cy="180" r="4" fill="#3B82F6" />
  <circle cx="520" cy="210" r="4" fill="#3B82F6" />
  <circle cx="580" cy="170" r="4" fill="#3B82F6" />
  <circle cx="640" cy="190" r="4" fill="#3B82F6" />
  <circle cx="700" cy="160" r="4" fill="#3B82F6" />
  
  <!-- Cards -->
  <rect x="240" y="320" width="260" height="120" rx="8" fill="#FFFFFF" stroke="#E2E8F0" stroke-width="1" />
  <rect x="260" y="340" width="120" height="20" rx="4" fill="#1E293B" opacity="0.8" />
  <rect x="260" y="370" width="220" height="50" rx="4" fill="#F1F5F9" />
  <rect x="270" y="385" width="140" height="20" rx="4" fill="#3B82F6" opacity="0.6" />
  
  <rect x="520" y="320" width="260" height="120" rx="8" fill="#FFFFFF" stroke="#E2E8F0" stroke-width="1" />
  <rect x="540" y="340" width="120" height="20" rx="4" fill="#1E293B" opacity="0.8" />
  <rect x="540" y="370" width="220" height="50" rx="4" fill="#F1F5F9" />
  <circle cx="560" cy="395" r="15" fill="#10B981" opacity="0.2" />
  <circle cx="560" cy="395" r="8" fill="#10B981" />
  <rect x="590" y="385" width="150" height="20" rx="4" fill="#10B981" opacity="0.6" />
  
  <!-- Bottom Section -->
  <rect x="240" y="460" width="540" height="120" rx="8" fill="#FFFFFF" stroke="#E2E8F0" stroke-width="1" />
  <rect x="260" y="480" width="150" height="20" rx="4" fill="#1E293B" opacity="0.8" />
  <rect x="260" y="510" width="500" height="1" fill="#E2E8F0" />
  
  <rect x="260" y="520" width="30" height="16" rx="4" fill="#E2E8F0" />
  <rect x="300" y="520" width="200" height="16" rx="4" fill="#E2E8F0" />
  <rect x="520" y="520" width="80" height="16" rx="4" fill="#E2E8F0" />
  <rect x="620" y="520" width="60" height="16" rx="4" fill="#3B82F6" opacity="0.6" />
  
  <rect x="260" y="550" width="30" height="16" rx="4" fill="#E2E8F0" />
  <rect x="300" y="550" width="180" height="16" rx="4" fill="#E2E8F0" />
  <rect x="520" y="550" width="80" height="16" rx="4" fill="#E2E8F0" />
  <rect x="620" y="550" width="60" height="16" rx="4" fill="#3B82F6" opacity="0.6" />
</svg>
